<svg width="145" height="19" viewBox="0 0 145 19" fill="none" xmlns="http://www.w3.org/2000/svg">
<g clip-path="url(#clip0)">
<path d="M20.9497 8.95538C20.8886 8.84929 20.774 8.78114 20.6519 8.78114H17.5751H13.8417L8.83339 0.174259C8.7723 0.0681879 8.65775 0 8.53564 0C8.41348 0 8.29892 0.0681879 8.23784 0.174259L6.9934 2.31082L5.75658 0.174259C5.6955 0.0681879 5.58098 0 5.45882 0C5.33667 0 5.22215 0.0681879 5.16107 0.174259L0.0458083 8.95538C-0.0152694 9.06142 -0.0152694 9.19021 0.0458083 9.29631C0.106886 9.40241 0.221407 9.47056 0.343563 9.47056H3.42035H7.15375L12.1621 18.085C12.2232 18.191 12.3377 18.2593 12.4598 18.2593C12.582 18.2593 12.6966 18.191 12.7576 18.085L14.0021 15.9484L15.2465 18.085C15.3076 18.191 15.4222 18.2593 15.5443 18.2593C15.6664 18.2593 15.781 18.191 15.8421 18.085L20.9497 9.30388C21.0108 9.19021 21.0108 9.06142 20.9497 8.95538ZM16.9796 9.46299L14.0021 14.5771L11.0245 9.46299H13.6433H16.9796ZM8.53564 1.02282L13.0477 8.78114H10.765L7.39041 2.98512L8.53564 1.02282ZM5.45882 1.02282L6.60406 2.98512L3.22948 8.78114H0.939069L5.45882 1.02282ZM6.9934 3.66701L9.97095 8.78114H7.3599H4.02349L6.9934 3.66701ZM12.4675 17.2213L7.95538 9.46299H10.2382L13.6127 15.259L12.4675 17.2213ZM15.5443 17.2213L14.3991 15.259L17.7737 9.46299H20.0564L15.5443 17.2213Z" fill="#333333"/>
<path d="M28.7187 6.52114H28.1196V1.73656H30.0538C30.5205 1.73656 30.8886 1.87525 31.1581 2.15261C31.4275 2.42998 31.5622 2.77191 31.5622 3.17839C31.5622 3.58487 31.4251 3.9268 31.1509 4.20417C30.8814 4.48153 30.5157 4.62022 30.0538 4.62022H28.7187V6.52114ZM29.9817 4.0894C30.2656 4.0894 30.4965 4.00571 30.6745 3.83833C30.8525 3.66617 30.9416 3.44619 30.9416 3.17839C30.9416 2.91058 30.8525 2.693 30.6745 2.52562C30.4965 2.35346 30.2656 2.26738 29.9817 2.26738H28.7187V4.0894H29.9817ZM36.0641 6.52114H35.3784L34.9526 5.45949H32.5565L32.1307 6.52114H31.445L33.3793 1.73656H34.1226L36.0641 6.52114ZM34.7722 4.92867L33.7546 2.35346L32.7297 4.92867H34.7722ZM38.197 6.60722C37.7928 6.60722 37.4295 6.53307 37.1072 6.38485C36.7848 6.2366 36.5443 6.0477 36.3855 5.81816L36.7391 5.43797C36.8835 5.62926 37.0855 5.78468 37.3454 5.90424C37.61 6.01901 37.889 6.0764 38.1826 6.0764C38.5579 6.0764 38.8538 5.99749 39.0703 5.83968C39.2868 5.67708 39.3951 5.4571 39.3951 5.17974C39.3951 4.8928 39.2819 4.68 39.0558 4.54131C38.8345 4.40263 38.5314 4.33329 38.1465 4.33329H37.1649V3.80246H38.1465C38.488 3.80246 38.7672 3.73791 38.9837 3.60879C39.205 3.47489 39.3157 3.27642 39.3157 3.0134C39.3157 2.75517 39.205 2.55431 38.9837 2.41085C38.7672 2.26738 38.4929 2.19565 38.1609 2.19565C37.6172 2.19565 37.1625 2.38933 36.7969 2.77669L36.4649 2.40368C36.6573 2.1837 36.9027 2.00675 37.201 1.87285C37.5041 1.73417 37.8385 1.66483 38.2042 1.66483C38.695 1.66483 39.1039 1.7796 39.4311 2.00914C39.7631 2.23869 39.9291 2.54953 39.9291 2.94167C39.9291 3.2573 39.8209 3.51075 39.6044 3.70204C39.3926 3.88854 39.1545 4.00571 38.8898 4.05353C39.1545 4.07744 39.4046 4.19222 39.6404 4.39785C39.881 4.60348 40.0013 4.88085 40.0013 5.22995C40.0013 5.63165 39.8353 5.96162 39.5033 6.21986C39.1713 6.4781 38.7359 6.60722 38.197 6.60722ZM41.6972 6.52114H41.0982V1.73656H43.0324C43.4991 1.73656 43.8672 1.87525 44.1366 2.15261C44.4061 2.42998 44.5408 2.77191 44.5408 3.17839C44.5408 3.58487 44.4037 3.9268 44.1294 4.20417C43.8599 4.48153 43.4943 4.62022 43.0324 4.62022H41.6972V6.52114ZM42.9602 4.0894C43.2441 4.0894 43.4751 4.00571 43.6531 3.83833C43.8311 3.66617 43.9201 3.44619 43.9201 3.17839C43.9201 2.91058 43.8311 2.693 43.6531 2.52562C43.4751 2.35346 43.2441 2.26738 42.9602 2.26738H41.6972V4.0894H42.9602ZM49.0426 6.52114H48.357L47.9312 5.45949H45.535L45.1092 6.52114H44.4236L46.3578 1.73656H47.1012L49.0426 6.52114ZM47.7507 4.92867L46.7331 2.35346L45.7083 4.92867H47.7507ZM49.8163 1.73656H52.9413V2.26738H50.4153V3.63748H51.7505C52.2124 3.63748 52.5781 3.77617 52.8475 4.05353C53.1218 4.33089 53.2589 4.67283 53.2589 5.07931C53.2589 5.48579 53.1242 5.82772 52.8547 6.10509C52.5853 6.38245 52.2173 6.52114 51.7505 6.52114H49.8163V1.73656ZM51.6783 4.1683H50.4153V5.99032H51.6783C51.9622 5.99032 52.1932 5.90663 52.3712 5.73925C52.5492 5.56709 52.6382 5.34711 52.6382 5.07931C52.6382 4.8115 52.5492 4.59392 52.3712 4.42654C52.1932 4.25438 51.9622 4.1683 51.6783 4.1683ZM56.3906 6.60722C55.6833 6.60722 55.1083 6.37289 54.6657 5.90424C54.223 5.43558 54.0017 4.84498 54.0017 4.13244C54.0017 3.41989 54.223 2.82929 54.6657 2.36064C55.1083 1.89198 55.6833 1.65765 56.3906 1.65765C57.0931 1.65765 57.6656 1.89198 58.1083 2.36064C58.5557 2.82929 58.7795 3.41989 58.7795 4.13244C58.7795 4.84498 58.5557 5.43558 58.1083 5.90424C57.6656 6.37289 57.0931 6.60722 56.3906 6.60722ZM56.3906 6.0764C56.9198 6.0764 57.3457 5.89467 57.668 5.53123C57.9952 5.163 58.1588 4.69673 58.1588 4.13244C58.1588 3.56335 57.9952 3.09709 57.668 2.73365C57.3457 2.3702 56.9198 2.18848 56.3906 2.18848C55.8565 2.18848 55.4282 2.3702 55.1059 2.73365C54.7836 3.09709 54.6223 3.56335 54.6223 4.13244C54.6223 4.69673 54.7836 5.163 55.1059 5.53123C55.4282 5.89467 55.8565 6.0764 56.3906 6.0764ZM61.452 6.52114H60.853V2.26738H59.3302V1.73656H62.9821V2.26738H61.452V6.52114ZM67.557 6.52114H66.8714L66.4456 5.45949H64.0497L63.6239 6.52114H62.9383L64.8725 1.73656H65.6156L67.557 6.52114ZM66.2651 4.92867L65.2478 2.35346L64.2229 4.92867H66.2651ZM72.344 6.52114H71.7449V4.32611H68.9302V6.52114H68.3312V1.73656H68.9302V3.79529H71.7449V1.73656H72.344V6.52114ZM75.8076 6.60722C75.1003 6.60722 74.5249 6.37289 74.0827 5.90424C73.6398 5.43558 73.4187 4.84498 73.4187 4.13244C73.4187 3.41989 73.6398 2.82929 74.0827 2.36064C74.5249 1.89198 75.1003 1.65765 75.8076 1.65765C76.5096 1.65765 77.0824 1.89198 77.5253 2.36064C77.9727 2.82929 78.1965 3.41989 78.1965 4.13244C78.1965 4.84498 77.9727 5.43558 77.5253 5.90424C77.0824 6.37289 76.5096 6.60722 75.8076 6.60722ZM75.8076 6.0764C76.3364 6.0764 76.7622 5.89467 77.085 5.53123C77.4118 5.163 77.5758 4.69673 77.5758 4.13244C77.5758 3.56335 77.4118 3.09709 77.085 2.73365C76.7622 2.3702 76.3364 2.18848 75.8076 2.18848C75.2735 2.18848 74.8451 2.3702 74.5229 2.73365C74.2001 3.09709 74.0394 3.56335 74.0394 4.13244C74.0394 4.69673 74.2001 5.163 74.5229 5.53123C74.8451 5.89467 75.2735 6.0764 75.8076 6.0764ZM81.8589 6.52114H81.2815V1.73656H81.8805V5.47384L84.6519 1.73656H85.2654V6.52114H84.6663V2.70495L81.8589 6.52114ZM92.5534 6.52114H91.9544V2.26738H89.1397V6.52114H88.5407V1.73656H92.5534V6.52114ZM94.422 6.52114H93.823V1.73656H95.7572C96.2237 1.73656 96.5918 1.87525 96.8614 2.15261C97.1304 2.42998 97.2656 2.77191 97.2656 3.17839C97.2656 3.58487 97.1285 3.9268 96.8542 4.20417C96.5846 4.48153 96.2191 4.62022 95.7572 4.62022H94.422V6.52114ZM95.685 4.0894C95.9685 4.0894 96.1994 4.00571 96.3779 3.83833C96.5557 3.66617 96.6449 3.44619 96.6449 3.17839C96.6449 2.91058 96.5557 2.693 96.3779 2.52562C96.1994 2.35346 95.9685 2.26738 95.685 2.26738H94.422V4.0894H95.685ZM100.397 6.60722C99.6899 6.60722 99.1152 6.37289 98.6723 5.90424C98.2294 5.43558 98.0083 4.84498 98.0083 4.13244C98.0083 3.41989 98.2294 2.82929 98.6723 2.36064C99.1152 1.89198 99.6899 1.65765 100.397 1.65765C101.1 1.65765 101.672 1.89198 102.115 2.36064C102.562 2.82929 102.786 3.41989 102.786 4.13244C102.786 4.84498 102.562 5.43558 102.115 5.90424C101.672 6.37289 101.1 6.60722 100.397 6.60722ZM100.397 6.0764C100.927 6.0764 101.353 5.89467 101.675 5.53123C102.002 5.163 102.165 4.69673 102.165 4.13244C102.165 3.56335 102.002 3.09709 101.675 2.73365C101.353 2.3702 100.927 2.18848 100.397 2.18848C99.8631 2.18848 99.4347 2.3702 99.1125 2.73365C98.7904 3.09709 98.629 3.56335 98.629 4.13244C98.629 4.69673 98.7904 5.163 99.1125 5.53123C99.4347 5.89467 99.8631 6.0764 100.397 6.0764ZM103.266 7.40345V6.04053C103.478 6.02618 103.646 5.97597 103.772 5.88989C103.896 5.80381 104.01 5.62209 104.111 5.34472C104.216 5.06736 104.303 4.66565 104.371 4.13961L104.667 1.73656H107.611V5.99032H108.051V7.40345H107.452V6.52114H103.865V7.40345H103.266ZM104.962 4.18265C104.852 5.10561 104.606 5.70816 104.226 5.99032H107.012V2.26738H105.201L104.962 4.18265ZM111.152 6.52114H108.958V1.73656H111.102C111.516 1.73656 111.842 1.84894 112.083 2.0737C112.329 2.29847 112.451 2.59257 112.451 2.95602C112.451 3.24295 112.369 3.48684 112.206 3.68769C112.042 3.88376 111.842 4.00571 111.607 4.05353C111.862 4.09179 112.081 4.22569 112.264 4.45523C112.451 4.68478 112.545 4.94302 112.545 5.22995C112.545 5.61731 112.42 5.93054 112.17 6.16965C111.924 6.40397 111.585 6.52114 111.152 6.52114ZM111.001 3.80964C111.265 3.80964 111.47 3.73791 111.614 3.59444C111.758 3.45097 111.831 3.26686 111.831 3.0421C111.831 2.81733 111.756 2.63322 111.607 2.48975C111.462 2.34151 111.26 2.26738 111.001 2.26738H109.557V3.80964H111.001ZM111.029 5.99032C111.308 5.99032 111.527 5.91619 111.686 5.76794C111.845 5.6197 111.924 5.41885 111.924 5.16539C111.924 4.93106 111.845 4.73499 111.686 4.57718C111.532 4.41937 111.314 4.34046 111.029 4.34046H109.557V5.99032H111.029ZM114.219 6.52114H113.641V1.73656H114.24V5.47384L117.012 1.73656H117.625V6.52114H117.026V2.70495L114.219 6.52114ZM119.495 6.52114H118.896V1.73656H122.049V2.26738H119.495V6.52114ZM126.643 6.52114H125.957L125.531 5.45949H123.135L122.709 6.52114H122.024L123.958 1.73656H124.701L126.643 6.52114ZM125.351 4.92867L124.333 2.35346L123.309 4.92867H125.351ZM130.57 6.52114H127.416V1.73656H130.57V2.26738H128.015V3.80964H130.52V4.34046H128.015V5.99032H130.57V6.52114ZM133.46 6.52114H132.861V2.26738H131.338V1.73656H134.99V2.26738H133.46V6.52114ZM138.013 6.60722C137.311 6.60722 136.721 6.37767 136.245 5.91858C135.774 5.45471 135.538 4.85933 135.538 4.13244C135.538 3.40554 135.774 2.81255 136.245 2.35346C136.721 1.88959 137.311 1.65765 138.013 1.65765C138.784 1.65765 139.392 1.97328 139.839 2.60453L139.334 2.88428C139.195 2.67865 139.007 2.51127 138.771 2.38216C138.535 2.25304 138.283 2.18848 138.013 2.18848C137.484 2.18848 137.042 2.37259 136.685 2.74082C136.334 3.10426 136.158 3.56814 136.158 4.13244C136.158 4.69673 136.334 5.163 136.685 5.53123C137.042 5.89467 137.484 6.0764 138.013 6.0764C138.283 6.0764 138.535 6.01423 138.771 5.88989C139.007 5.76077 139.195 5.59101 139.334 5.38059L139.846 5.66035C139.38 6.29159 138.769 6.60722 138.013 6.60722ZM141.231 6.52114H140.531L141.83 4.57001C141.479 4.54131 141.18 4.40502 140.935 4.16113C140.694 3.91724 140.574 3.58966 140.574 3.17839C140.574 2.74321 140.714 2.39411 140.993 2.13109C141.277 1.86807 141.642 1.73656 142.09 1.73656H144.024V6.52114H143.425V4.62022H142.458L141.231 6.52114ZM142.155 4.09657H143.425V2.26738H142.155C141.87 2.26738 141.64 2.35346 141.462 2.52562C141.284 2.693 141.195 2.91058 141.195 3.17839C141.195 3.44619 141.284 3.66617 141.462 3.83833C141.645 4.01049 141.876 4.09657 142.155 4.09657ZM30.3137 15.6508H28.1196V10.8662H30.2631C30.6769 10.8662 31.0041 10.9786 31.2447 11.2033C31.4901 11.4281 31.6127 11.7222 31.6127 12.0857C31.6127 12.3726 31.5309 12.6165 31.3674 12.8173C31.2038 13.0134 31.0041 13.1354 30.7683 13.1832C31.0234 13.2214 31.2422 13.3553 31.4251 13.5849C31.6128 13.8144 31.7066 14.0726 31.7066 14.3596C31.7066 14.7469 31.5815 15.0601 31.3313 15.2993C31.0859 15.5336 30.7467 15.6508 30.3137 15.6508ZM30.1621 12.9393C30.4267 12.9393 30.6312 12.8675 30.7756 12.7241C30.9199 12.5806 30.9921 12.3965 30.9921 12.1717C30.9921 11.9469 30.9175 11.7629 30.7683 11.6194C30.624 11.4712 30.4219 11.397 30.1621 11.397H28.7187V12.9393H30.1621ZM30.191 15.1199C30.47 15.1199 30.6889 15.0458 30.8477 14.8976C31.0065 14.7493 31.0859 14.5485 31.0859 14.295C31.0859 14.0607 31.0065 13.8646 30.8477 13.7068C30.6937 13.549 30.4749 13.4701 30.191 13.4701H28.7187V15.1199H30.191ZM39.9394 15.6508H38.9073V12.3008L37.5505 15.6508H37.103L35.7462 12.3008V15.6508H34.7213V10.8662H36.1575L37.3267 13.757L38.4959 10.8662H39.9394V15.6508ZM44.4463 15.6508H41.0398V10.8662H44.4463V11.7629H42.0646V12.7743H44.3958V13.6709H42.0646V14.7541H44.4463V15.6508ZM47.2899 15.6508H45.3918V10.8662H47.2899C48.0453 10.8662 48.6588 11.0862 49.1303 11.5261C49.6066 11.9661 49.8448 12.5447 49.8448 13.2621C49.8448 13.9794 49.609 14.558 49.1375 14.998C48.666 15.4332 48.0501 15.6508 47.2899 15.6508ZM47.2899 14.7541C47.7518 14.7541 48.1175 14.6106 48.3869 14.3237C48.6611 14.0368 48.7983 13.6829 48.7983 13.2621C48.7983 12.8221 48.666 12.4634 48.4013 12.1861C48.1367 11.9039 47.7662 11.7629 47.2899 11.7629H46.4166V14.7541H47.2899ZM51.7413 15.6508H50.7165V10.8662H51.7413V15.6508ZM57.3304 15.6508H56.1612L55.8653 14.8402H53.8012L53.498 15.6508H52.3289L54.1909 10.8662H55.4756L57.3304 15.6508ZM55.5838 13.9435L54.8332 11.8848L54.0826 13.9435H55.5838ZM62.3362 15.6508H61.6866L60.6257 11.7915L59.5647 15.6508H58.9152L57.5439 10.8662H58.2079L59.2761 14.8545L60.3803 10.8662H60.8783L61.9825 14.8545L63.0434 10.8662H63.7074L62.3362 15.6508ZM66.5748 15.7368C65.8675 15.7368 65.2924 15.5025 64.8498 15.0339C64.4072 14.5652 64.1858 13.9746 64.1858 13.2621C64.1858 12.5495 64.4072 11.9589 64.8498 11.4903C65.2924 11.0216 65.8675 10.7873 66.5748 10.7873C67.2775 10.7873 67.8496 11.0216 68.2925 11.4903C68.74 11.9589 68.9637 12.5495 68.9637 13.2621C68.9637 13.9746 68.74 14.5652 68.2925 15.0339C67.8496 15.5025 67.2775 15.7368 66.5748 15.7368ZM66.5748 15.206C67.1043 15.206 67.5301 15.0243 67.8523 14.6609C68.1797 14.2926 68.343 13.8263 68.343 13.2621C68.343 12.693 68.1797 12.2267 67.8523 11.8633C67.5301 11.4999 67.1043 11.3181 66.5748 11.3181C66.0407 11.3181 65.6123 11.4999 65.29 11.8633C64.9677 12.2267 64.8065 12.693 64.8065 13.2621C64.8065 13.8263 64.9677 14.2926 65.29 14.6609C65.6123 15.0243 66.0407 15.206 66.5748 15.206ZM73.5368 15.6508H72.8295L71.6026 13.7499H70.6427V15.6508H70.0437V10.8662H71.9779C72.4253 10.8662 72.7888 10.9977 73.0677 11.2607C73.3465 11.5237 73.4863 11.8729 73.4863 12.308C73.4863 12.7193 73.3662 13.0469 73.1254 13.2908C72.8846 13.5347 72.5887 13.6709 72.2377 13.6996L73.5368 15.6508ZM71.9057 13.2262C72.1898 13.2262 72.4207 13.1401 72.5985 12.968C72.7763 12.7958 72.8656 12.5758 72.8656 12.308C72.8656 12.0402 72.7763 11.8226 72.5985 11.6553C72.4207 11.4831 72.1898 11.397 71.9057 11.397H70.6427V13.2262H71.9057ZM78.2306 15.6508H77.4872L75.6613 13.4988L75.1777 14.044V15.6508H74.5787V10.8662H75.1777V13.341L77.3068 10.8662H78.0574L76.051 13.1401L78.2306 15.6508ZM80.6168 15.7368C79.8374 15.7368 79.2213 15.4834 78.7692 14.9765L79.1229 14.5246C79.5316 14.9789 80.0368 15.206 80.6385 15.206C81.0282 15.206 81.3143 15.1247 81.4973 14.9621C81.6797 14.7947 81.7716 14.6011 81.7716 14.3811C81.7716 14.2137 81.7185 14.0726 81.6128 13.9579C81.5065 13.8431 81.3694 13.7546 81.2014 13.6925C81.0374 13.6255 80.8524 13.5658 80.6457 13.5131C80.4436 13.4605 80.2416 13.4031 80.0395 13.341C79.8374 13.274 79.6517 13.1951 79.4837 13.1043C79.3197 13.0134 79.1852 12.8843 79.0796 12.7169C78.9733 12.5495 78.9208 12.3511 78.9208 12.1215C78.9208 11.7294 79.077 11.4114 79.3899 11.1675C79.7022 10.9188 80.0972 10.7945 80.5735 10.7945C81.29 10.7945 81.8602 11.0168 82.284 11.4616L81.9232 11.8991C81.5715 11.5165 81.1076 11.3253 80.5302 11.3253C80.2416 11.3253 80.0034 11.397 79.8157 11.5405C79.6327 11.6792 79.5415 11.8609 79.5415 12.0857C79.5415 12.253 79.611 12.3917 79.7508 12.5017C79.8951 12.6117 80.0703 12.693 80.2776 12.7456C80.4889 12.7982 80.7179 12.8651 80.9633 12.9464C81.2132 13.0229 81.4416 13.1067 81.6489 13.1975C81.8602 13.2836 82.036 13.4246 82.1758 13.6207C82.3201 13.8168 82.3923 14.0535 82.3923 14.3309C82.3923 14.723 82.2453 15.0554 81.952 15.328C81.6633 15.6006 81.2178 15.7368 80.6168 15.7368Z" fill="#333333"/>
<path d="M34.2449 16.8918H57.4457V17.0352H34.2449V16.8918Z" fill="#333333"/>
<path d="M57.4426 16.8918H82.8683V17.0352H57.4426V16.8918Z" fill="#333333"/>
</g>
<defs>
<clipPath id="clip0">
<rect width="145" height="18.2593" fill="#333333"/>
</clipPath>
</defs>
</svg>
