<svg xmlns="http://www.w3.org/2000/svg" viewBox="0 0 469.89 133.13"><defs><style>.cls-1{fill:#e80013;}</style></defs><title>logo_chat</title><g id="Слой_2" data-name="Слой 2"><g id="Слой_1-2" data-name="Слой 1"><path d="M168.23,95V38.17H183v44.7h37.48V95Z"/><path d="M238.75,88.06q-9.83-7.86-9.82-21.5t9.82-21.49Q248.56,37.2,266,37.2t27.22,7.87Q303,52.93,303,66.56t-9.78,21.5q-9.78,7.88-27.22,7.87T238.75,88.06ZM249.54,54a15.45,15.45,0,0,0-5.85,12.57,15.46,15.46,0,0,0,5.85,12.58q5.84,4.78,16.46,4.78t16.39-4.78a15.48,15.48,0,0,0,5.84-12.58A15.47,15.47,0,0,0,282.39,54Q276.56,49.21,266,49.2T249.54,54Z"/><path d="M350.39,64h33.5V90.25a88.53,88.53,0,0,1-31.15,5.68q-18.33,0-28.44-7.83T314.2,66.56q0-13.7,9.33-21.53t26.13-7.83q13.14,0,21.74,4.95t10.87,13.46l-14.44,1c-1.25-2.28-3.49-4.07-6.74-5.4a30.17,30.17,0,0,0-11.43-2q-9.9,0-15.3,4.75A16,16,0,0,0,329,66.56a15.14,15.14,0,0,0,6.12,12.66q6.14,4.71,18,4.7A83,83,0,0,0,370.5,82v-8.2H350.39Z"/><path d="M405.64,88.06q-9.81-7.86-9.81-21.5t9.81-21.49q9.83-7.87,27.26-7.87t27.22,7.87q9.78,7.86,9.77,21.49t-9.77,21.5q-9.78,7.88-27.22,7.87T405.64,88.06ZM416.43,54a15.47,15.47,0,0,0-5.84,12.57,15.48,15.48,0,0,0,5.84,12.58q5.85,4.78,16.47,4.78t16.39-4.78a15.48,15.48,0,0,0,5.84-12.58A15.47,15.47,0,0,0,449.29,54q-5.85-4.79-16.39-4.79T416.43,54Z"/><path d="M128.16,41.28a67.08,67.08,0,0,0-4-8.11C109.08,38,49.29,59.54,13,106a66.79,66.79,0,0,0,30.61,23C51,116.94,81.09,71.53,128.16,41.28Z"/><path class="cls-1" d="M122,29.66a66.58,66.58,0,0,0-117.55,13c20.19-8,51.39-16.3,96-17.7C100.46,25,41.4,38.72,0,65.7c0,.29,0,.58,0,.87A66.33,66.33,0,0,0,6.37,95C18.84,82,54.29,50.63,122,29.66Z"/><path class="cls-1" d="M133.13,66.57a66.35,66.35,0,0,0-3.34-20.87c-8.58,6.59-39.47,33-62.9,87.43A66.56,66.56,0,0,0,133.13,66.57Z"/></g></g></svg>