<svg width="130" height="29" viewBox="0 0 130 29" fill="none" xmlns="http://www.w3.org/2000/svg">
<path d="M75.4271 25.694C75.4271 25.9201 75.4998 26.0522 75.6439 26.0522L75.9588 25.9358L116.476 0.97728C117.187 0.536473 117.839 0.305476 118.812 0.305476H127.716C129.085 0.305476 130 1.16995 130 2.47032V18.5996C130 20.5479 129.543 21.6733 127.718 22.716L116.915 28.8727L116.553 29C116.422 29 116.301 28.903 116.301 28.5546L116.303 9.72574C116.303 9.52318 116.231 9.36432 116.084 9.36432L115.771 9.47578L86.1487 27.7267C85.3183 28.2378 84.6367 28.3922 83.8756 28.3922H64.2388C62.868 28.3922 61.9553 27.5245 61.9553 26.2255V2.98111C61.9553 2.81237 61.8753 2.65493 61.7383 2.65493L61.4197 2.76633L41.8831 13.9008C41.6876 14.0105 41.6344 14.1011 41.6339 14.1918L41.8065 14.4783L55.7602 27.714C55.9457 27.8909 56.0731 28.0258 56.0731 28.163C56.0731 28.3186 55.8686 28.3922 55.6307 28.3922H43.0033C42.014 28.3922 41.251 28.2473 40.7183 27.7424L32.2578 19.7168L32.0133 19.5896L31.7512 19.674L17.596 27.7443C16.7403 28.2311 16.1482 28.3922 15.3106 28.3922H2.28302C0.912756 28.3922 0 27.5245 0 26.2255V10.3908C0 8.44251 0.459424 7.32351 2.28401 6.28257L13.1507 0.0906909L13.4456 0C13.6102 0 13.7005 0.165578 13.7005 0.520268V21.6891C13.7005 21.912 13.7648 22.0153 13.917 22.0153L14.2399 21.8867L50.961 0.954755C51.8352 0.452099 52.3742 0.305476 53.3839 0.305476H73.1435C74.5133 0.305476 75.4271 1.16995 75.4271 2.47032V25.694Z" fill="#05141F"/>
</svg>
